<svg xmlns="http://www.w3.org/2000/svg" width="181.10mm" height="243.10mm" viewBox="0 0 181.10 243.10">
<rect width="181.10" height="243.10" fill="#f4f0e6"/>
<circle cx="90.55" cy="16" r="8" fill="#c4512c"/>
<circle cx="88.15" cy="15.2" r="0.8" fill="#1c1915"/>
<circle cx="92.95" cy="15.2" r="0.8" fill="#1c1915"/>
<text x="90.55" y="32" text-anchor="middle" font-family="sans-serif" font-size="4" fill="#1c1915">mini person</text>
<rect x="4.00" y="101.55" width="7.00" height="26.00" rx="3" fill="#c4512c"/>
<rect x="170.10" y="101.55" width="7.00" height="26.00" rx="3" fill="#c4512c"/>
<rect x="83.55" y="193.10" width="5" height="16" rx="1.5" fill="#1c1915"/>
<rect x="92.55" y="193.10" width="5" height="16" rx="1.5" fill="#1c1915"/>
<rect x="14.00" y="38.00" width="153.10" height="153.10" fill="#ffffff"/>
<rect x="30.552" y="54.552" width="4.488" height="4.488" fill="#1c1915"/>
<rect x="34.690" y="54.552" width="4.488" height="4.488" fill="#1c1915"/>
<rect x="38.828" y="54.552" width="4.488" height="4.488" fill="#1c1915"/>
<rect x="42.966" y="54.552" width="4.488" height="4.488" fill="#1c1915"/>
<rect x="47.103" y="54.552" width="4.488" height="4.488" fill="#1c1915"/>
<rect x="51.241" y="54.552" width="4.488" height="4.488" fill="#1c1915"/>
<rect x="55.379" y="54.552" width="4.488" height="4.488" fill="#1c1915"/>
<rect x="63.655" y="54.552" width="4.488" height="4.488" fill="#1c1915"/>
<rect x="88.483" y="54.552" width="4.488" height="4.488" fill="#1c1915"/>
<rect x="92.621" y="54.552" width="4.488" height="4.488" fill="#1c1915"/>
<rect x="96.759" y="54.552" width="4.488" height="4.488" fill="#1c1915"/>
<rect x="105.034" y="54.552" width="4.488" height="4.488" fill="#1c1915"/>
<rect x="121.586" y="54.552" width="4.488" height="4.488" fill="#1c1915"/>
<rect x="125.724" y="54.552" width="4.488" height="4.488" fill="#1c1915"/>
<rect x="129.862" y="54.552" width="4.488" height="4.488" fill="#1c1915"/>
<rect x="134.000" y="54.552" width="4.488" height="4.488" fill="#1c1915"/>
<rect x="138.138" y="54.552" width="4.488" height="4.488" fill="#1c1915"/>
<rect x="142.276" y="54.552" width="4.488" height="4.488" fill="#1c1915"/>
<rect x="146.414" y="54.552" width="4.488" height="4.488" fill="#1c1915"/>
<rect x="30.552" y="58.690" width="4.488" height="4.488" fill="#1c1915"/>
<rect x="55.379" y="58.690" width="4.488" height="4.488" fill="#1c1915"/>
<rect x="67.793" y="58.690" width="4.488" height="4.488" fill="#1c1915"/>
<rect x="88.483" y="58.690" width="4.488" height="4.488" fill="#1c1915"/>
<rect x="92.621" y="58.690" width="4.488" height="4.488" fill="#1c1915"/>
<rect x="96.759" y="58.690" width="4.488" height="4.488" fill="#1c1915"/>
<rect x="100.897" y="58.690" width="4.488" height="4.488" fill="#1c1915"/>
<rect x="105.034" y="58.690" width="4.488" height="4.488" fill="#1c1915"/>
<rect x="121.586" y="58.690" width="4.488" height="4.488" fill="#1c1915"/>
<rect x="146.414" y="58.690" width="4.488" height="4.488" fill="#1c1915"/>
<rect x="30.552" y="62.828" width="4.488" height="4.488" fill="#1c1915"/>
<rect x="38.828" y="62.828" width="4.488" height="4.488" fill="#1c1915"/>
<rect x="42.966" y="62.828" width="4.488" height="4.488" fill="#1c1915"/>
<rect x="47.103" y="62.828" width="4.488" height="4.488" fill="#1c1915"/>
<rect x="55.379" y="62.828" width="4.488" height="4.488" fill="#1c1915"/>
<rect x="71.931" y="62.828" width="4.488" height="4.488" fill="#1c1915"/>
<rect x="80.207" y="62.828" width="4.488" height="4.488" fill="#1c1915"/>
<rect x="84.345" y="62.828" width="4.488" height="4.488" fill="#1c1915"/>
<rect x="88.483" y="62.828" width="4.488" height="4.488" fill="#1c1915"/>
<rect x="92.621" y="62.828" width="4.488" height="4.488" fill="#1c1915"/>
<rect x="96.759" y="62.828" width="4.488" height="4.488" fill="#1c1915"/>
<rect x="109.172" y="62.828" width="4.488" height="4.488" fill="#1c1915"/>
<rect x="121.586" y="62.828" width="4.488" height="4.488" fill="#1c1915"/>
<rect x="129.862" y="62.828" width="4.488" height="4.488" fill="#1c1915"/>
<rect x="134.000" y="62.828" width="4.488" height="4.488" fill="#1c1915"/>
<rect x="138.138" y="62.828" width="4.488" height="4.488" fill="#1c1915"/>
<rect x="146.414" y="62.828" width="4.488" height="4.488" fill="#1c1915"/>
<rect x="30.552" y="66.966" width="4.488" height="4.488" fill="#1c1915"/>
<rect x="38.828" y="66.966" width="4.488" height="4.488" fill="#1c1915"/>
<rect x="42.966" y="66.966" width="4.488" height="4.488" fill="#1c1915"/>
<rect x="47.103" y="66.966" width="4.488" height="4.488" fill="#1c1915"/>
<rect x="55.379" y="66.966" width="4.488" height="4.488" fill="#1c1915"/>
<rect x="63.655" y="66.966" width="4.488" height="4.488" fill="#1c1915"/>
<rect x="80.207" y="66.966" width="4.488" height="4.488" fill="#1c1915"/>
<rect x="84.345" y="66.966" width="4.488" height="4.488" fill="#1c1915"/>
<rect x="105.034" y="66.966" width="4.488" height="4.488" fill="#1c1915"/>
<rect x="121.586" y="66.966" width="4.488" height="4.488" fill="#1c1915"/>
<rect x="129.862" y="66.966" width="4.488" height="4.488" fill="#1c1915"/>
<rect x="134.000" y="66.966" width="4.488" height="4.488" fill="#1c1915"/>
<rect x="138.138" y="66.966" width="4.488" height="4.488" fill="#1c1915"/>
<rect x="146.414" y="66.966" width="4.488" height="4.488" fill="#1c1915"/>
<rect x="30.552" y="71.103" width="4.488" height="4.488" fill="#1c1915"/>
<rect x="38.828" y="71.103" width="4.488" height="4.488" fill="#1c1915"/>
<rect x="42.966" y="71.103" width="4.488" height="4.488" fill="#1c1915"/>
<rect x="47.103" y="71.103" width="4.488" height="4.488" fill="#1c1915"/>
<rect x="55.379" y="71.103" width="4.488" height="4.488" fill="#1c1915"/>
<rect x="88.483" y="71.103" width="4.488" height="4.488" fill="#1c1915"/>
<rect x="92.621" y="71.103" width="4.488" height="4.488" fill="#1c1915"/>
<rect x="109.172" y="71.103" width="4.488" height="4.488" fill="#1c1915"/>
<rect x="121.586" y="71.103" width="4.488" height="4.488" fill="#1c1915"/>
<rect x="129.862" y="71.103" width="4.488" height="4.488" fill="#1c1915"/>
<rect x="134.000" y="71.103" width="4.488" height="4.488" fill="#1c1915"/>
<rect x="138.138" y="71.103" width="4.488" height="4.488" fill="#1c1915"/>
<rect x="146.414" y="71.103" width="4.488" height="4.488" fill="#1c1915"/>
<rect x="30.552" y="75.241" width="4.488" height="4.488" fill="#1c1915"/>
<rect x="55.379" y="75.241" width="4.488" height="4.488" fill="#1c1915"/>
<rect x="76.069" y="75.241" width="4.488" height="4.488" fill="#1c1915"/>
<rect x="80.207" y="75.241" width="4.488" height="4.488" fill="#1c1915"/>
<rect x="84.345" y="75.241" width="4.488" height="4.488" fill="#1c1915"/>
<rect x="92.621" y="75.241" width="4.488" height="4.488" fill="#1c1915"/>
<rect x="96.759" y="75.241" width="4.488" height="4.488" fill="#1c1915"/>
<rect x="100.897" y="75.241" width="4.488" height="4.488" fill="#1c1915"/>
<rect x="109.172" y="75.241" width="4.488" height="4.488" fill="#1c1915"/>
<rect x="121.586" y="75.241" width="4.488" height="4.488" fill="#1c1915"/>
<rect x="146.414" y="75.241" width="4.488" height="4.488" fill="#1c1915"/>
<rect x="30.552" y="79.379" width="4.488" height="4.488" fill="#1c1915"/>
<rect x="34.690" y="79.379" width="4.488" height="4.488" fill="#1c1915"/>
<rect x="38.828" y="79.379" width="4.488" height="4.488" fill="#1c1915"/>
<rect x="42.966" y="79.379" width="4.488" height="4.488" fill="#1c1915"/>
<rect x="47.103" y="79.379" width="4.488" height="4.488" fill="#1c1915"/>
<rect x="51.241" y="79.379" width="4.488" height="4.488" fill="#1c1915"/>
<rect x="55.379" y="79.379" width="4.488" height="4.488" fill="#1c1915"/>
<rect x="63.655" y="79.379" width="4.488" height="4.488" fill="#1c1915"/>
<rect x="71.931" y="79.379" width="4.488" height="4.488" fill="#1c1915"/>
<rect x="80.207" y="79.379" width="4.488" height="4.488" fill="#1c1915"/>
<rect x="88.483" y="79.379" width="4.488" height="4.488" fill="#1c1915"/>
<rect x="96.759" y="79.379" width="4.488" height="4.488" fill="#1c1915"/>
<rect x="105.034" y="79.379" width="4.488" height="4.488" fill="#1c1915"/>
<rect x="113.310" y="79.379" width="4.488" height="4.488" fill="#1c1915"/>
<rect x="121.586" y="79.379" width="4.488" height="4.488" fill="#1c1915"/>
<rect x="125.724" y="79.379" width="4.488" height="4.488" fill="#1c1915"/>
<rect x="129.862" y="79.379" width="4.488" height="4.488" fill="#1c1915"/>
<rect x="134.000" y="79.379" width="4.488" height="4.488" fill="#1c1915"/>
<rect x="138.138" y="79.379" width="4.488" height="4.488" fill="#1c1915"/>
<rect x="142.276" y="79.379" width="4.488" height="4.488" fill="#1c1915"/>
<rect x="146.414" y="79.379" width="4.488" height="4.488" fill="#1c1915"/>
<rect x="67.793" y="83.517" width="4.488" height="4.488" fill="#1c1915"/>
<rect x="71.931" y="83.517" width="4.488" height="4.488" fill="#1c1915"/>
<rect x="76.069" y="83.517" width="4.488" height="4.488" fill="#1c1915"/>
<rect x="84.345" y="83.517" width="4.488" height="4.488" fill="#1c1915"/>
<rect x="92.621" y="83.517" width="4.488" height="4.488" fill="#1c1915"/>
<rect x="96.759" y="83.517" width="4.488" height="4.488" fill="#1c1915"/>
<rect x="100.897" y="83.517" width="4.488" height="4.488" fill="#1c1915"/>
<rect x="105.034" y="83.517" width="4.488" height="4.488" fill="#1c1915"/>
<rect x="109.172" y="83.517" width="4.488" height="4.488" fill="#1c1915"/>
<rect x="38.828" y="87.655" width="4.488" height="4.488" fill="#1c1915"/>
<rect x="47.103" y="87.655" width="4.488" height="4.488" fill="#1c1915"/>
<rect x="51.241" y="87.655" width="4.488" height="4.488" fill="#1c1915"/>
<rect x="55.379" y="87.655" width="4.488" height="4.488" fill="#1c1915"/>
<rect x="63.655" y="87.655" width="4.488" height="4.488" fill="#1c1915"/>
<rect x="67.793" y="87.655" width="4.488" height="4.488" fill="#1c1915"/>
<rect x="71.931" y="87.655" width="4.488" height="4.488" fill="#1c1915"/>
<rect x="76.069" y="87.655" width="4.488" height="4.488" fill="#1c1915"/>
<rect x="88.483" y="87.655" width="4.488" height="4.488" fill="#1c1915"/>
<rect x="92.621" y="87.655" width="4.488" height="4.488" fill="#1c1915"/>
<rect x="96.759" y="87.655" width="4.488" height="4.488" fill="#1c1915"/>
<rect x="105.034" y="87.655" width="4.488" height="4.488" fill="#1c1915"/>
<rect x="117.448" y="87.655" width="4.488" height="4.488" fill="#1c1915"/>
<rect x="134.000" y="87.655" width="4.488" height="4.488" fill="#1c1915"/>
<rect x="146.414" y="87.655" width="4.488" height="4.488" fill="#1c1915"/>
<rect x="30.552" y="91.793" width="4.488" height="4.488" fill="#1c1915"/>
<rect x="34.690" y="91.793" width="4.488" height="4.488" fill="#1c1915"/>
<rect x="38.828" y="91.793" width="4.488" height="4.488" fill="#1c1915"/>
<rect x="51.241" y="91.793" width="4.488" height="4.488" fill="#1c1915"/>
<rect x="59.517" y="91.793" width="4.488" height="4.488" fill="#1c1915"/>
<rect x="63.655" y="91.793" width="4.488" height="4.488" fill="#1c1915"/>
<rect x="67.793" y="91.793" width="4.488" height="4.488" fill="#1c1915"/>
<rect x="71.931" y="91.793" width="4.488" height="4.488" fill="#1c1915"/>
<rect x="80.207" y="91.793" width="4.488" height="4.488" fill="#1c1915"/>
<rect x="88.483" y="91.793" width="4.488" height="4.488" fill="#1c1915"/>
<rect x="92.621" y="91.793" width="4.488" height="4.488" fill="#1c1915"/>
<rect x="96.759" y="91.793" width="4.488" height="4.488" fill="#1c1915"/>
<rect x="105.034" y="91.793" width="4.488" height="4.488" fill="#1c1915"/>
<rect x="109.172" y="91.793" width="4.488" height="4.488" fill="#1c1915"/>
<rect x="125.724" y="91.793" width="4.488" height="4.488" fill="#1c1915"/>
<rect x="138.138" y="91.793" width="4.488" height="4.488" fill="#1c1915"/>
<rect x="142.276" y="91.793" width="4.488" height="4.488" fill="#1c1915"/>
<rect x="146.414" y="91.793" width="4.488" height="4.488" fill="#1c1915"/>
<rect x="38.828" y="95.931" width="4.488" height="4.488" fill="#1c1915"/>
<rect x="42.966" y="95.931" width="4.488" height="4.488" fill="#1c1915"/>
<rect x="51.241" y="95.931" width="4.488" height="4.488" fill="#1c1915"/>
<rect x="55.379" y="95.931" width="4.488" height="4.488" fill="#1c1915"/>
<rect x="71.931" y="95.931" width="4.488" height="4.488" fill="#1c1915"/>
<rect x="76.069" y="95.931" width="4.488" height="4.488" fill="#1c1915"/>
<rect x="80.207" y="95.931" width="4.488" height="4.488" fill="#1c1915"/>
<rect x="84.345" y="95.931" width="4.488" height="4.488" fill="#1c1915"/>
<rect x="100.897" y="95.931" width="4.488" height="4.488" fill="#1c1915"/>
<rect x="117.448" y="95.931" width="4.488" height="4.488" fill="#1c1915"/>
<rect x="125.724" y="95.931" width="4.488" height="4.488" fill="#1c1915"/>
<rect x="129.862" y="95.931" width="4.488" height="4.488" fill="#1c1915"/>
<rect x="134.000" y="95.931" width="4.488" height="4.488" fill="#1c1915"/>
<rect x="142.276" y="95.931" width="4.488" height="4.488" fill="#1c1915"/>
<rect x="146.414" y="95.931" width="4.488" height="4.488" fill="#1c1915"/>
<rect x="30.552" y="100.069" width="4.488" height="4.488" fill="#1c1915"/>
<rect x="38.828" y="100.069" width="4.488" height="4.488" fill="#1c1915"/>
<rect x="47.103" y="100.069" width="4.488" height="4.488" fill="#1c1915"/>
<rect x="63.655" y="100.069" width="4.488" height="4.488" fill="#1c1915"/>
<rect x="71.931" y="100.069" width="4.488" height="4.488" fill="#1c1915"/>
<rect x="80.207" y="100.069" width="4.488" height="4.488" fill="#1c1915"/>
<rect x="88.483" y="100.069" width="4.488" height="4.488" fill="#1c1915"/>
<rect x="96.759" y="100.069" width="4.488" height="4.488" fill="#1c1915"/>
<rect x="100.897" y="100.069" width="4.488" height="4.488" fill="#1c1915"/>
<rect x="109.172" y="100.069" width="4.488" height="4.488" fill="#1c1915"/>
<rect x="121.586" y="100.069" width="4.488" height="4.488" fill="#1c1915"/>
<rect x="125.724" y="100.069" width="4.488" height="4.488" fill="#1c1915"/>
<rect x="142.276" y="100.069" width="4.488" height="4.488" fill="#1c1915"/>
<rect x="146.414" y="100.069" width="4.488" height="4.488" fill="#1c1915"/>
<rect x="34.690" y="104.207" width="4.488" height="4.488" fill="#1c1915"/>
<rect x="38.828" y="104.207" width="4.488" height="4.488" fill="#1c1915"/>
<rect x="42.966" y="104.207" width="4.488" height="4.488" fill="#1c1915"/>
<rect x="47.103" y="104.207" width="4.488" height="4.488" fill="#1c1915"/>
<rect x="55.379" y="104.207" width="4.488" height="4.488" fill="#1c1915"/>
<rect x="59.517" y="104.207" width="4.488" height="4.488" fill="#1c1915"/>
<rect x="63.655" y="104.207" width="4.488" height="4.488" fill="#1c1915"/>
<rect x="67.793" y="104.207" width="4.488" height="4.488" fill="#1c1915"/>
<rect x="76.069" y="104.207" width="4.488" height="4.488" fill="#1c1915"/>
<rect x="80.207" y="104.207" width="4.488" height="4.488" fill="#1c1915"/>
<rect x="88.483" y="104.207" width="4.488" height="4.488" fill="#1c1915"/>
<rect x="92.621" y="104.207" width="4.488" height="4.488" fill="#1c1915"/>
<rect x="96.759" y="104.207" width="4.488" height="4.488" fill="#1c1915"/>
<rect x="100.897" y="104.207" width="4.488" height="4.488" fill="#1c1915"/>
<rect x="105.034" y="104.207" width="4.488" height="4.488" fill="#1c1915"/>
<rect x="117.448" y="104.207" width="4.488" height="4.488" fill="#1c1915"/>
<rect x="121.586" y="104.207" width="4.488" height="4.488" fill="#1c1915"/>
<rect x="34.690" y="108.345" width="4.488" height="4.488" fill="#1c1915"/>
<rect x="42.966" y="108.345" width="4.488" height="4.488" fill="#1c1915"/>
<rect x="47.103" y="108.345" width="4.488" height="4.488" fill="#1c1915"/>
<rect x="51.241" y="108.345" width="4.488" height="4.488" fill="#1c1915"/>
<rect x="63.655" y="108.345" width="4.488" height="4.488" fill="#1c1915"/>
<rect x="80.207" y="108.345" width="4.488" height="4.488" fill="#1c1915"/>
<rect x="84.345" y="108.345" width="4.488" height="4.488" fill="#1c1915"/>
<rect x="92.621" y="108.345" width="4.488" height="4.488" fill="#1c1915"/>
<rect x="105.034" y="108.345" width="4.488" height="4.488" fill="#1c1915"/>
<rect x="113.310" y="108.345" width="4.488" height="4.488" fill="#1c1915"/>
<rect x="117.448" y="108.345" width="4.488" height="4.488" fill="#1c1915"/>
<rect x="121.586" y="108.345" width="4.488" height="4.488" fill="#1c1915"/>
<rect x="134.000" y="108.345" width="4.488" height="4.488" fill="#1c1915"/>
<rect x="138.138" y="108.345" width="4.488" height="4.488" fill="#1c1915"/>
<rect x="142.276" y="108.345" width="4.488" height="4.488" fill="#1c1915"/>
<rect x="146.414" y="108.345" width="4.488" height="4.488" fill="#1c1915"/>
<rect x="30.552" y="112.483" width="4.488" height="4.488" fill="#1c1915"/>
<rect x="38.828" y="112.483" width="4.488" height="4.488" fill="#1c1915"/>
<rect x="47.103" y="112.483" width="4.488" height="4.488" fill="#1c1915"/>
<rect x="51.241" y="112.483" width="4.488" height="4.488" fill="#1c1915"/>
<rect x="55.379" y="112.483" width="4.488" height="4.488" fill="#1c1915"/>
<rect x="59.517" y="112.483" width="4.488" height="4.488" fill="#1c1915"/>
<rect x="67.793" y="112.483" width="4.488" height="4.488" fill="#1c1915"/>
<rect x="71.931" y="112.483" width="4.488" height="4.488" fill="#1c1915"/>
<rect x="84.345" y="112.483" width="4.488" height="4.488" fill="#1c1915"/>
<rect x="88.483" y="112.483" width="4.488" height="4.488" fill="#1c1915"/>
<rect x="100.897" y="112.483" width="4.488" height="4.488" fill="#1c1915"/>
<rect x="113.310" y="112.483" width="4.488" height="4.488" fill="#1c1915"/>
<rect x="117.448" y="112.483" width="4.488" height="4.488" fill="#1c1915"/>
<rect x="134.000" y="112.483" width="4.488" height="4.488" fill="#1c1915"/>
<rect x="138.138" y="112.483" width="4.488" height="4.488" fill="#1c1915"/>
<rect x="142.276" y="112.483" width="4.488" height="4.488" fill="#1c1915"/>
<rect x="146.414" y="112.483" width="4.488" height="4.488" fill="#1c1915"/>
<rect x="34.690" y="116.621" width="4.488" height="4.488" fill="#1c1915"/>
<rect x="38.828" y="116.621" width="4.488" height="4.488" fill="#1c1915"/>
<rect x="42.966" y="116.621" width="4.488" height="4.488" fill="#1c1915"/>
<rect x="51.241" y="116.621" width="4.488" height="4.488" fill="#1c1915"/>
<rect x="59.517" y="116.621" width="4.488" height="4.488" fill="#1c1915"/>
<rect x="67.793" y="116.621" width="4.488" height="4.488" fill="#1c1915"/>
<rect x="71.931" y="116.621" width="4.488" height="4.488" fill="#1c1915"/>
<rect x="76.069" y="116.621" width="4.488" height="4.488" fill="#1c1915"/>
<rect x="92.621" y="116.621" width="4.488" height="4.488" fill="#1c1915"/>
<rect x="100.897" y="116.621" width="4.488" height="4.488" fill="#1c1915"/>
<rect x="117.448" y="116.621" width="4.488" height="4.488" fill="#1c1915"/>
<rect x="121.586" y="116.621" width="4.488" height="4.488" fill="#1c1915"/>
<rect x="125.724" y="116.621" width="4.488" height="4.488" fill="#1c1915"/>
<rect x="146.414" y="116.621" width="4.488" height="4.488" fill="#1c1915"/>
<rect x="34.690" y="120.759" width="4.488" height="4.488" fill="#1c1915"/>
<rect x="38.828" y="120.759" width="4.488" height="4.488" fill="#1c1915"/>
<rect x="42.966" y="120.759" width="4.488" height="4.488" fill="#1c1915"/>
<rect x="55.379" y="120.759" width="4.488" height="4.488" fill="#1c1915"/>
<rect x="59.517" y="120.759" width="4.488" height="4.488" fill="#1c1915"/>
<rect x="67.793" y="120.759" width="4.488" height="4.488" fill="#1c1915"/>
<rect x="76.069" y="120.759" width="4.488" height="4.488" fill="#1c1915"/>
<rect x="105.034" y="120.759" width="4.488" height="4.488" fill="#1c1915"/>
<rect x="109.172" y="120.759" width="4.488" height="4.488" fill="#1c1915"/>
<rect x="113.310" y="120.759" width="4.488" height="4.488" fill="#1c1915"/>
<rect x="117.448" y="120.759" width="4.488" height="4.488" fill="#1c1915"/>
<rect x="129.862" y="120.759" width="4.488" height="4.488" fill="#1c1915"/>
<rect x="146.414" y="120.759" width="4.488" height="4.488" fill="#1c1915"/>
<rect x="38.828" y="124.897" width="4.488" height="4.488" fill="#1c1915"/>
<rect x="47.103" y="124.897" width="4.488" height="4.488" fill="#1c1915"/>
<rect x="51.241" y="124.897" width="4.488" height="4.488" fill="#1c1915"/>
<rect x="59.517" y="124.897" width="4.488" height="4.488" fill="#1c1915"/>
<rect x="63.655" y="124.897" width="4.488" height="4.488" fill="#1c1915"/>
<rect x="80.207" y="124.897" width="4.488" height="4.488" fill="#1c1915"/>
<rect x="88.483" y="124.897" width="4.488" height="4.488" fill="#1c1915"/>
<rect x="100.897" y="124.897" width="4.488" height="4.488" fill="#1c1915"/>
<rect x="109.172" y="124.897" width="4.488" height="4.488" fill="#1c1915"/>
<rect x="113.310" y="124.897" width="4.488" height="4.488" fill="#1c1915"/>
<rect x="117.448" y="124.897" width="4.488" height="4.488" fill="#1c1915"/>
<rect x="129.862" y="124.897" width="4.488" height="4.488" fill="#1c1915"/>
<rect x="138.138" y="124.897" width="4.488" height="4.488" fill="#1c1915"/>
<rect x="142.276" y="124.897" width="4.488" height="4.488" fill="#1c1915"/>
<rect x="146.414" y="124.897" width="4.488" height="4.488" fill="#1c1915"/>
<rect x="30.552" y="129.034" width="4.488" height="4.488" fill="#1c1915"/>
<rect x="38.828" y="129.034" width="4.488" height="4.488" fill="#1c1915"/>
<rect x="47.103" y="129.034" width="4.488" height="4.488" fill="#1c1915"/>
<rect x="55.379" y="129.034" width="4.488" height="4.488" fill="#1c1915"/>
<rect x="80.207" y="129.034" width="4.488" height="4.488" fill="#1c1915"/>
<rect x="109.172" y="129.034" width="4.488" height="4.488" fill="#1c1915"/>
<rect x="113.310" y="129.034" width="4.488" height="4.488" fill="#1c1915"/>
<rect x="142.276" y="129.034" width="4.488" height="4.488" fill="#1c1915"/>
<rect x="146.414" y="129.034" width="4.488" height="4.488" fill="#1c1915"/>
<rect x="34.690" y="133.172" width="4.488" height="4.488" fill="#1c1915"/>
<rect x="42.966" y="133.172" width="4.488" height="4.488" fill="#1c1915"/>
<rect x="47.103" y="133.172" width="4.488" height="4.488" fill="#1c1915"/>
<rect x="51.241" y="133.172" width="4.488" height="4.488" fill="#1c1915"/>
<rect x="67.793" y="133.172" width="4.488" height="4.488" fill="#1c1915"/>
<rect x="76.069" y="133.172" width="4.488" height="4.488" fill="#1c1915"/>
<rect x="84.345" y="133.172" width="4.488" height="4.488" fill="#1c1915"/>
<rect x="92.621" y="133.172" width="4.488" height="4.488" fill="#1c1915"/>
<rect x="100.897" y="133.172" width="4.488" height="4.488" fill="#1c1915"/>
<rect x="105.034" y="133.172" width="4.488" height="4.488" fill="#1c1915"/>
<rect x="113.310" y="133.172" width="4.488" height="4.488" fill="#1c1915"/>
<rect x="129.862" y="133.172" width="4.488" height="4.488" fill="#1c1915"/>
<rect x="134.000" y="133.172" width="4.488" height="4.488" fill="#1c1915"/>
<rect x="146.414" y="133.172" width="4.488" height="4.488" fill="#1c1915"/>
<rect x="30.552" y="137.310" width="4.488" height="4.488" fill="#1c1915"/>
<rect x="38.828" y="137.310" width="4.488" height="4.488" fill="#1c1915"/>
<rect x="42.966" y="137.310" width="4.488" height="4.488" fill="#1c1915"/>
<rect x="55.379" y="137.310" width="4.488" height="4.488" fill="#1c1915"/>
<rect x="63.655" y="137.310" width="4.488" height="4.488" fill="#1c1915"/>
<rect x="67.793" y="137.310" width="4.488" height="4.488" fill="#1c1915"/>
<rect x="76.069" y="137.310" width="4.488" height="4.488" fill="#1c1915"/>
<rect x="80.207" y="137.310" width="4.488" height="4.488" fill="#1c1915"/>
<rect x="84.345" y="137.310" width="4.488" height="4.488" fill="#1c1915"/>
<rect x="88.483" y="137.310" width="4.488" height="4.488" fill="#1c1915"/>
<rect x="92.621" y="137.310" width="4.488" height="4.488" fill="#1c1915"/>
<rect x="96.759" y="137.310" width="4.488" height="4.488" fill="#1c1915"/>
<rect x="109.172" y="137.310" width="4.488" height="4.488" fill="#1c1915"/>
<rect x="113.310" y="137.310" width="4.488" height="4.488" fill="#1c1915"/>
<rect x="117.448" y="137.310" width="4.488" height="4.488" fill="#1c1915"/>
<rect x="121.586" y="137.310" width="4.488" height="4.488" fill="#1c1915"/>
<rect x="125.724" y="137.310" width="4.488" height="4.488" fill="#1c1915"/>
<rect x="129.862" y="137.310" width="4.488" height="4.488" fill="#1c1915"/>
<rect x="138.138" y="137.310" width="4.488" height="4.488" fill="#1c1915"/>
<rect x="142.276" y="137.310" width="4.488" height="4.488" fill="#1c1915"/>
<rect x="63.655" y="141.448" width="4.488" height="4.488" fill="#1c1915"/>
<rect x="67.793" y="141.448" width="4.488" height="4.488" fill="#1c1915"/>
<rect x="71.931" y="141.448" width="4.488" height="4.488" fill="#1c1915"/>
<rect x="84.345" y="141.448" width="4.488" height="4.488" fill="#1c1915"/>
<rect x="88.483" y="141.448" width="4.488" height="4.488" fill="#1c1915"/>
<rect x="96.759" y="141.448" width="4.488" height="4.488" fill="#1c1915"/>
<rect x="113.310" y="141.448" width="4.488" height="4.488" fill="#1c1915"/>
<rect x="129.862" y="141.448" width="4.488" height="4.488" fill="#1c1915"/>
<rect x="134.000" y="141.448" width="4.488" height="4.488" fill="#1c1915"/>
<rect x="146.414" y="141.448" width="4.488" height="4.488" fill="#1c1915"/>
<rect x="30.552" y="145.586" width="4.488" height="4.488" fill="#1c1915"/>
<rect x="34.690" y="145.586" width="4.488" height="4.488" fill="#1c1915"/>
<rect x="38.828" y="145.586" width="4.488" height="4.488" fill="#1c1915"/>
<rect x="42.966" y="145.586" width="4.488" height="4.488" fill="#1c1915"/>
<rect x="47.103" y="145.586" width="4.488" height="4.488" fill="#1c1915"/>
<rect x="51.241" y="145.586" width="4.488" height="4.488" fill="#1c1915"/>
<rect x="55.379" y="145.586" width="4.488" height="4.488" fill="#1c1915"/>
<rect x="96.759" y="145.586" width="4.488" height="4.488" fill="#1c1915"/>
<rect x="109.172" y="145.586" width="4.488" height="4.488" fill="#1c1915"/>
<rect x="113.310" y="145.586" width="4.488" height="4.488" fill="#1c1915"/>
<rect x="121.586" y="145.586" width="4.488" height="4.488" fill="#1c1915"/>
<rect x="129.862" y="145.586" width="4.488" height="4.488" fill="#1c1915"/>
<rect x="134.000" y="145.586" width="4.488" height="4.488" fill="#1c1915"/>
<rect x="138.138" y="145.586" width="4.488" height="4.488" fill="#1c1915"/>
<rect x="142.276" y="145.586" width="4.488" height="4.488" fill="#1c1915"/>
<rect x="146.414" y="145.586" width="4.488" height="4.488" fill="#1c1915"/>
<rect x="30.552" y="149.724" width="4.488" height="4.488" fill="#1c1915"/>
<rect x="55.379" y="149.724" width="4.488" height="4.488" fill="#1c1915"/>
<rect x="63.655" y="149.724" width="4.488" height="4.488" fill="#1c1915"/>
<rect x="71.931" y="149.724" width="4.488" height="4.488" fill="#1c1915"/>
<rect x="76.069" y="149.724" width="4.488" height="4.488" fill="#1c1915"/>
<rect x="84.345" y="149.724" width="4.488" height="4.488" fill="#1c1915"/>
<rect x="100.897" y="149.724" width="4.488" height="4.488" fill="#1c1915"/>
<rect x="109.172" y="149.724" width="4.488" height="4.488" fill="#1c1915"/>
<rect x="113.310" y="149.724" width="4.488" height="4.488" fill="#1c1915"/>
<rect x="129.862" y="149.724" width="4.488" height="4.488" fill="#1c1915"/>
<rect x="142.276" y="149.724" width="4.488" height="4.488" fill="#1c1915"/>
<rect x="146.414" y="149.724" width="4.488" height="4.488" fill="#1c1915"/>
<rect x="30.552" y="153.862" width="4.488" height="4.488" fill="#1c1915"/>
<rect x="38.828" y="153.862" width="4.488" height="4.488" fill="#1c1915"/>
<rect x="42.966" y="153.862" width="4.488" height="4.488" fill="#1c1915"/>
<rect x="47.103" y="153.862" width="4.488" height="4.488" fill="#1c1915"/>
<rect x="55.379" y="153.862" width="4.488" height="4.488" fill="#1c1915"/>
<rect x="63.655" y="153.862" width="4.488" height="4.488" fill="#1c1915"/>
<rect x="67.793" y="153.862" width="4.488" height="4.488" fill="#1c1915"/>
<rect x="88.483" y="153.862" width="4.488" height="4.488" fill="#1c1915"/>
<rect x="92.621" y="153.862" width="4.488" height="4.488" fill="#1c1915"/>
<rect x="100.897" y="153.862" width="4.488" height="4.488" fill="#1c1915"/>
<rect x="113.310" y="153.862" width="4.488" height="4.488" fill="#1c1915"/>
<rect x="117.448" y="153.862" width="4.488" height="4.488" fill="#1c1915"/>
<rect x="121.586" y="153.862" width="4.488" height="4.488" fill="#1c1915"/>
<rect x="125.724" y="153.862" width="4.488" height="4.488" fill="#1c1915"/>
<rect x="129.862" y="153.862" width="4.488" height="4.488" fill="#1c1915"/>
<rect x="146.414" y="153.862" width="4.488" height="4.488" fill="#1c1915"/>
<rect x="30.552" y="158.000" width="4.488" height="4.488" fill="#1c1915"/>
<rect x="38.828" y="158.000" width="4.488" height="4.488" fill="#1c1915"/>
<rect x="42.966" y="158.000" width="4.488" height="4.488" fill="#1c1915"/>
<rect x="47.103" y="158.000" width="4.488" height="4.488" fill="#1c1915"/>
<rect x="55.379" y="158.000" width="4.488" height="4.488" fill="#1c1915"/>
<rect x="76.069" y="158.000" width="4.488" height="4.488" fill="#1c1915"/>
<rect x="80.207" y="158.000" width="4.488" height="4.488" fill="#1c1915"/>
<rect x="96.759" y="158.000" width="4.488" height="4.488" fill="#1c1915"/>
<rect x="105.034" y="158.000" width="4.488" height="4.488" fill="#1c1915"/>
<rect x="109.172" y="158.000" width="4.488" height="4.488" fill="#1c1915"/>
<rect x="129.862" y="158.000" width="4.488" height="4.488" fill="#1c1915"/>
<rect x="134.000" y="158.000" width="4.488" height="4.488" fill="#1c1915"/>
<rect x="142.276" y="158.000" width="4.488" height="4.488" fill="#1c1915"/>
<rect x="30.552" y="162.138" width="4.488" height="4.488" fill="#1c1915"/>
<rect x="38.828" y="162.138" width="4.488" height="4.488" fill="#1c1915"/>
<rect x="42.966" y="162.138" width="4.488" height="4.488" fill="#1c1915"/>
<rect x="47.103" y="162.138" width="4.488" height="4.488" fill="#1c1915"/>
<rect x="55.379" y="162.138" width="4.488" height="4.488" fill="#1c1915"/>
<rect x="63.655" y="162.138" width="4.488" height="4.488" fill="#1c1915"/>
<rect x="76.069" y="162.138" width="4.488" height="4.488" fill="#1c1915"/>
<rect x="80.207" y="162.138" width="4.488" height="4.488" fill="#1c1915"/>
<rect x="92.621" y="162.138" width="4.488" height="4.488" fill="#1c1915"/>
<rect x="105.034" y="162.138" width="4.488" height="4.488" fill="#1c1915"/>
<rect x="109.172" y="162.138" width="4.488" height="4.488" fill="#1c1915"/>
<rect x="113.310" y="162.138" width="4.488" height="4.488" fill="#1c1915"/>
<rect x="125.724" y="162.138" width="4.488" height="4.488" fill="#1c1915"/>
<rect x="129.862" y="162.138" width="4.488" height="4.488" fill="#1c1915"/>
<rect x="138.138" y="162.138" width="4.488" height="4.488" fill="#1c1915"/>
<rect x="146.414" y="162.138" width="4.488" height="4.488" fill="#1c1915"/>
<rect x="30.552" y="166.276" width="4.488" height="4.488" fill="#1c1915"/>
<rect x="55.379" y="166.276" width="4.488" height="4.488" fill="#1c1915"/>
<rect x="76.069" y="166.276" width="4.488" height="4.488" fill="#1c1915"/>
<rect x="88.483" y="166.276" width="4.488" height="4.488" fill="#1c1915"/>
<rect x="92.621" y="166.276" width="4.488" height="4.488" fill="#1c1915"/>
<rect x="96.759" y="166.276" width="4.488" height="4.488" fill="#1c1915"/>
<rect x="117.448" y="166.276" width="4.488" height="4.488" fill="#1c1915"/>
<rect x="125.724" y="166.276" width="4.488" height="4.488" fill="#1c1915"/>
<rect x="134.000" y="166.276" width="4.488" height="4.488" fill="#1c1915"/>
<rect x="142.276" y="166.276" width="4.488" height="4.488" fill="#1c1915"/>
<rect x="30.552" y="170.414" width="4.488" height="4.488" fill="#1c1915"/>
<rect x="34.690" y="170.414" width="4.488" height="4.488" fill="#1c1915"/>
<rect x="38.828" y="170.414" width="4.488" height="4.488" fill="#1c1915"/>
<rect x="42.966" y="170.414" width="4.488" height="4.488" fill="#1c1915"/>
<rect x="47.103" y="170.414" width="4.488" height="4.488" fill="#1c1915"/>
<rect x="51.241" y="170.414" width="4.488" height="4.488" fill="#1c1915"/>
<rect x="55.379" y="170.414" width="4.488" height="4.488" fill="#1c1915"/>
<rect x="71.931" y="170.414" width="4.488" height="4.488" fill="#1c1915"/>
<rect x="76.069" y="170.414" width="4.488" height="4.488" fill="#1c1915"/>
<rect x="84.345" y="170.414" width="4.488" height="4.488" fill="#1c1915"/>
<rect x="96.759" y="170.414" width="4.488" height="4.488" fill="#1c1915"/>
<rect x="100.897" y="170.414" width="4.488" height="4.488" fill="#1c1915"/>
<rect x="113.310" y="170.414" width="4.488" height="4.488" fill="#1c1915"/>
<rect x="117.448" y="170.414" width="4.488" height="4.488" fill="#1c1915"/>
<rect x="121.586" y="170.414" width="4.488" height="4.488" fill="#1c1915"/>
<rect x="125.724" y="170.414" width="4.488" height="4.488" fill="#1c1915"/>
<rect x="129.862" y="170.414" width="4.488" height="4.488" fill="#1c1915"/>
<rect x="138.138" y="170.414" width="4.488" height="4.488" fill="#1c1915"/>
<rect x="142.276" y="170.414" width="4.488" height="4.488" fill="#1c1915"/>
<rect x="146.414" y="170.414" width="4.488" height="4.488" fill="#1c1915"/>
<line x1="30.55" y1="217.10" x2="150.55" y2="217.10" stroke="#1c1915" stroke-width="0.4"/>
<line x1="30.55" y1="215.60" x2="30.55" y2="218.60" stroke="#1c1915" stroke-width="0.4"/>
<line x1="150.55" y1="215.60" x2="150.55" y2="218.60" stroke="#1c1915" stroke-width="0.4"/>
<text x="90.55" y="215.10" text-anchor="middle" font-family="sans-serif" font-size="3.2" fill="#1c1915">120 mm</text>
<line x1="8" y1="227.10" x2="173.10" y2="227.10" stroke="#6e675e" stroke-width="0.4" stroke-dasharray="1.6 1.2"/>
<text x="90.55" y="235.10" text-anchor="middle" font-family="sans-serif" font-size="3.2" fill="#6e675e">fold back to stand</text>
<rect x="0.4" y="0.4" width="180.30" height="242.30" fill="none" stroke="#1c1915" stroke-width="0.6"/>
</svg>